<svg width="160" height="160" viewBox="0 0 160 160" fill="none" xmlns="http://www.w3.org/2000/svg">
  <!-- Background Circle -->
  <circle cx="80" cy="80" r="75" fill="white" stroke="#4F46E5" stroke-width="6"/>
  
  <!-- Shield Shape -->
  <path d="M80 35C66.7 47.5 51.5 53.3 35 55.5V83C35 111.5 54 126.3 80 135C106 126.3 125 111.5 125 83V55.5C108.5 53.3 93.3 47.5 80 35Z" fill="#4F46E5"/>
  
  <!-- Letter S -->
  <path d="M71 65C71 60.5817 74.5817 57 79 57H89C93.4183 57 97 60.5817 97 65V66C97 70.4183 93.4183 74 89 74H79C74.5817 74 71 77.5817 71 82V83C71 87.4183 74.5817 91 79 91H89C93.4183 91 97 87.4183 97 83" stroke="white" stroke-width="8" stroke-linecap="round"/>
  
  <!-- Letter $ in the middle of the S -->
  <path d="M84 45V105" stroke="white" stroke-width="8" stroke-linecap="round"/>
</svg> 