<svg width="1200" height="630" viewBox="0 0 1200 630" fill="none" xmlns="http://www.w3.org/2000/svg">
  <!-- Background gradient -->
  <rect width="1200" height="630" fill="url(#paint0_linear)" />
  
  <!-- Logo -->
  <g transform="translate(150, 200)">
    <circle cx="80" cy="80" r="75" fill="white" stroke="#4F46E5" stroke-width="6"/>
    <path d="M80 35C66.7 47.5 51.5 53.3 35 55.5V83C35 111.5 54 126.3 80 135C106 126.3 125 111.5 125 83V55.5C108.5 53.3 93.3 47.5 80 35Z" fill="#4F46E5"/>
    <path d="M71 65C71 60.5817 74.5817 57 79 57H89C93.4183 57 97 60.5817 97 65V66C97 70.4183 93.4183 74 89 74H79C74.5817 74 71 77.5817 71 82V83C71 87.4183 74.5817 91 79 91H89C93.4183 91 97 87.4183 97 83" stroke="white" stroke-width="8" stroke-linecap="round"/>
    <path d="M84 45V105" stroke="white" stroke-width="8" stroke-linecap="round"/>
  </g>
  
  <!-- Text -->
  <text x="350" y="230" font-family="Inter, Arial, sans-serif" font-weight="bold" font-size="72" fill="white">SoftSell</text>
  <text x="350" y="320" font-family="Inter, Arial, sans-serif" font-weight="normal" font-size="36" fill="white">Turn Unused Software Licenses Into Cash</text>
  
  <!-- Tagline -->
  <text x="350" y="380" font-family="Inter, Arial, sans-serif" font-weight="normal" font-size="28" fill="rgba(255, 255, 255, 0.8)">Secure • Compliant • Hassle-free</text>
  
  <!-- Decorative elements -->
  <path d="M950 180L1050 280M1050 180L950 280" stroke="rgba(255, 255, 255, 0.2)" stroke-width="10" stroke-linecap="round"/>
  <circle cx="1000" cy="380" r="60" stroke="rgba(255, 255, 255, 0.2)" stroke-width="10" fill="none"/>
  
  <!-- Gradient definition -->
  <defs>
    <linearGradient id="paint0_linear" x1="0" y1="0" x2="1200" y2="630" gradientUnits="userSpaceOnUse">
      <stop offset="0" stop-color="#4F46E5"/>
      <stop offset="1" stop-color="#7E22CE"/>
    </linearGradient>
  </defs>
</svg> 